<svg width="194" height="60" viewBox="0 0 194 60" fill="none" xmlns="http://www.w3.org/2000/svg">
<path fill-rule="evenodd" clip-rule="evenodd" d="M45.5067 13.4231H20.8451C19.8263 13.4231 18.849 13.8275 18.1281 14.5475C17.4071 15.2674 17.0014 16.2441 17 17.263V41.8883C16.998 42.3946 17.0959 42.8962 17.2882 43.3645C17.4806 43.8328 17.7635 44.2586 18.1207 44.6173C18.478 44.976 18.9026 45.2606 19.3701 45.4548C19.8376 45.649 20.3389 45.749 20.8451 45.749H45.5067C46.0125 45.7483 46.5132 45.6478 46.9802 45.4533C47.4471 45.2588 47.8711 44.9741 48.2278 44.6154C48.5845 44.2568 48.8669 43.8313 49.0589 43.3633C49.2509 42.8954 49.3487 42.3941 49.3466 41.8883V17.263C49.3453 16.245 48.9402 15.2691 48.2204 14.5493C47.5006 13.8295 46.5247 13.4245 45.5067 13.4231ZM30.9502 36.7062C30.9495 36.8754 30.9155 37.0428 30.8499 37.1988C30.7844 37.3548 30.6887 37.4964 30.5683 37.6153C30.4479 37.7342 30.3053 37.8282 30.1485 37.8918C29.9917 37.9555 29.8239 37.9876 29.6547 37.9862H24.2653C23.9267 37.9848 23.6025 37.8494 23.3636 37.6095C23.1247 37.3696 22.9905 37.0448 22.9905 36.7062V20.6677C22.9905 20.3291 23.1247 20.0043 23.3636 19.7644C23.6025 19.5245 23.9267 19.3891 24.2653 19.3877H29.6547C29.9937 19.389 30.3185 19.5243 30.5583 19.7641C30.798 20.0038 30.9333 20.3286 30.9347 20.6677L30.9502 36.7062ZM43.3872 29.3425C43.3872 29.5119 43.3536 29.6796 43.2883 29.8359C43.223 29.9922 43.1274 30.134 43.0068 30.2531C42.8863 30.3722 42.7434 30.4661 42.5863 30.5295C42.4292 30.5929 42.2611 30.6245 42.0917 30.6224H36.7023C36.3633 30.6211 36.0385 30.4858 35.7988 30.246C35.559 30.0063 35.4237 29.6815 35.4224 29.3425V20.6677C35.4237 20.3286 35.559 20.0038 35.7988 19.7641C36.0385 19.5243 36.3633 19.389 36.7023 19.3877H42.0917C42.4303 19.3891 42.7545 19.5245 42.9934 19.7644C43.2324 20.0043 43.3665 20.3291 43.3665 20.6677L43.3872 29.3425Z" fill="url(#paint0_linear)"/>
<path d="M84.0253 15.7914V22.041H76.6201V45.749H69.4792V22.041H62.074V15.7914H84.0253Z" fill="#293856"/>
<path d="M93.1144 45.749H86.5125V22.4296H93.1144V26.8966C94.3685 23.751 96.374 21.8803 99.9444 22.1083V29.016C95.2805 28.6533 93.1144 29.7933 93.1144 33.5296V45.749Z" fill="#293856"/>
<path d="M136.012 45.9303C131.685 45.9303 128.964 43.8575 128.964 38.9552V13.4231H135.613V38.0432C135.613 39.4579 136.546 39.9606 137.686 39.9606C138.015 39.9672 138.344 39.9517 138.67 39.9139V45.6609C137.801 45.8727 136.906 45.9634 136.012 45.9303Z" fill="#293856"/>
<path d="M149.879 45.9303C145.552 45.9303 142.826 43.8575 142.826 38.9552V13.4231H149.475V38.0432C149.475 39.4579 150.413 39.9606 151.574 39.9606C151.901 39.9673 152.228 39.9518 152.553 39.9139V45.6609C151.679 45.8747 150.779 45.9654 149.879 45.9303Z" fill="#293856"/>
<path d="M155.74 34.0789C155.74 26.8758 159.886 21.9476 167.027 21.9476C174.167 21.9476 178.225 26.8603 178.225 34.0789C178.225 41.2975 174.121 46.2983 167.027 46.2983C159.932 46.2983 155.74 41.2354 155.74 34.0789ZM162.212 34.0789C162.212 37.5872 163.684 40.37 167.027 40.37C170.369 40.37 171.758 37.5872 171.758 34.0789C171.758 30.5706 170.333 27.8604 167.027 27.8604C163.72 27.8604 162.212 30.5654 162.212 34.0789Z" fill="#293856"/>
<path d="M108.858 36.188C110.706 36.3911 112.564 36.5001 114.423 36.5145C119.481 36.5145 123.751 35.1568 123.751 30.2597C123.751 25.5077 119.362 21.9373 114.081 21.9373C106.972 21.9373 102.417 27.0934 102.417 34.2965C102.417 41.7743 106.345 46.2153 115.221 46.2153C117.855 46.2368 120.469 45.7694 122.932 44.8369V39.2506C120.652 39.9813 118.087 40.7068 115.455 40.7068C111.92 40.7068 109.459 39.546 108.858 36.188ZM113.947 27.0261C115.817 27.0261 117.32 28.2957 117.32 30.0317C117.32 32.2652 114.962 32.9647 112.247 32.9647C111.091 32.9594 109.938 32.8676 108.796 32.6901C108.882 31.6012 109.194 30.5422 109.713 29.5808C110.129 28.8189 110.74 28.1815 111.485 27.7343C112.229 27.2871 113.079 27.0462 113.947 27.0364V27.0261Z" fill="#293856"/>
<defs>
<linearGradient id="paint0_linear" x1="33.1889" y1="45.749" x2="33.1889" y2="13.4231" gradientUnits="userSpaceOnUse">
<stop stop-color="#0052CC"/>
<stop offset="1" stop-color="#2684FF"/>
</linearGradient>
</defs>
</svg>
